<svg xmlns="http://www.w3.org/2000/svg" xmlns:xlink="http://www.w3.org/1999/xlink" width="512" zoomAndPan="magnify" viewBox="0 0 384 383.999986" height="512" preserveAspectRatio="xMidYMid meet" version="1.0"><defs><clipPath id="f80c799e65"><path d="M 5.222656 5.222656 L 378.722656 5.222656 L 378.722656 378.722656 L 5.222656 378.722656 Z M 5.222656 5.222656 " clip-rule="nonzero"/></clipPath><clipPath id="ac3962f778"><path d="M 59.417969 13.058594 L 377 13.058594 L 377 345.308594 L 59.417969 345.308594 Z M 59.417969 13.058594 " clip-rule="nonzero"/></clipPath><clipPath id="22c9e773c3"><path d="M 226.925781 13.097656 C 240.152344 13.894531 251.777344 21.21875 253.195312 30.179688 C 254.433594 40.316406 243.5 48.5625 228.738281 47.953125 C 213.761719 47.707031 201.847656 38.640625 202.125 28.378906 C 202.453125 19.328125 213.597656 12.792969 226.925781 13.097656 M 272.289062 318.335938 C 283.058594 316.601562 289.679688 320.964844 287.410156 327.542969 C 285.15625 333.183594 275.519531 339.117188 266.011719 341.121094 C 256.011719 342.839844 248.597656 339.832031 249.773438 333.855469 C 250.875 326.992188 261.003906 319.824219 272.289062 318.335938 Z M 314.375 248.179688 C 316.339844 246.9375 318.378906 245.859375 320.394531 245.03125 C 327.871094 238.402344 333.789062 228.902344 336.882812 218.4375 C 340.058594 206.851562 339.71875 194.933594 336.011719 185.050781 C 336.035156 185.175781 336.035156 185.175781 336.066406 185.175781 C 329.480469 176.171875 326.382812 163.167969 328.882812 150.433594 C 332.195312 131.207031 346.519531 121.800781 359.980469 128.632812 C 371.347656 135.210938 378.367188 153.648438 376.644531 170.617188 C 374.972656 181.917969 369.683594 190.734375 362.730469 194.332031 C 362.769531 194.339844 362.769531 194.339844 362.800781 194.339844 C 356.78125 200.539062 351.578125 210.289062 348.550781 221.257812 C 346.792969 227.222656 345.828125 233.101562 345.664062 238.503906 C 344.933594 250.660156 348.722656 249.058594 349.910156 257.550781 C 350.671875 264.726562 347.96875 273.777344 342.234375 282.3125 C 334.101562 293.902344 320.96875 302.871094 309.628906 303.480469 C 284.902344 302.664062 298.175781 282.527344 285.90625 268.78125 C 282.871094 265.3125 278.964844 262.300781 274.367188 259.941406 C 268.898438 257.222656 262.847656 255.503906 256.546875 254.9375 C 234.46875 252.601562 218.648438 264.117188 212.519531 284.113281 C 210.835938 289.199219 210.429688 294.246094 210.976562 298.96875 C 211.328125 302.609375 215.511719 311.632812 215.511719 311.625 C 223.25 317.832031 226.320312 326.003906 222.882812 333.339844 C 217.660156 342.996094 200.582031 347.410156 183.796875 344.378906 C 166.980469 340.339844 154.652344 329.390625 156.667969 318.671875 C 157.746094 313.796875 161.207031 309.695312 166.320312 306.800781 C 175.269531 301.441406 177.753906 304.894531 186.980469 295.433594 C 190.867188 291.222656 193.871094 285.996094 195.589844 280.082031 C 205.359375 245.425781 174.601562 241.757812 182.300781 211.285156 C 187.925781 189.695312 210.382812 176.722656 232.289062 182.570312 C 232.320312 182.585938 232.320312 182.585938 232.355469 182.59375 C 236.070312 183.5 239.707031 184.929688 243.167969 186.917969 C 271.449219 203.320312 250.488281 227.308594 283.546875 245.351562 C 293.347656 250.457031 304.417969 251.394531 314.464844 248.113281 C 314.382812 248.1875 314.382812 248.1875 314.375 248.179688 Z M 161.339844 115.941406 C 177.726562 124.816406 192.292969 123.378906 204.921875 111.820312 C 217.445312 100.59375 212.289062 99.203125 220.539062 89.066406 C 224.742188 83.96875 230.941406 80.210938 240.867188 78.058594 C 285.488281 70.25 308.890625 140.082031 263.109375 151.855469 C 250.957031 155.003906 242.109375 153.460938 234.492188 149.054688 C 222.875 142.394531 228.234375 141.34375 212.785156 137.296875 C 195.351562 132.84375 182.160156 139.023438 171.632812 156.007812 C 167.605469 169.726562 156.914062 180.472656 143.765625 183.933594 C 143.75 183.933594 143.75 183.933594 143.738281 183.941406 C 124.101562 189.402344 105.089844 176.914062 100.675781 156.527344 C 98.222656 143.808594 102.023438 130.722656 109.867188 121.203125 C 122.246094 106.914062 127.671875 103.976562 130.523438 83.296875 C 131.601562 76.449219 131.140625 70.214844 129.035156 65.21875 C 125.894531 57.410156 123.824219 59.273438 119.40625 54.964844 C 115.59375 51.300781 114.242188 46.128906 116.242188 39.996094 C 120.460938 28.949219 135.820312 17.988281 151.230469 14.332031 C 167.726562 11.519531 180.253906 17.949219 178.878906 29.949219 C 178.34375 34.726562 176.03125 39.535156 172.21875 43.917969 C 163.65625 54.25 159.546875 50.863281 151.714844 64.648438 C 148.847656 69.917969 146.972656 75.789062 146.429688 81.832031 C 145.144531 99.011719 150.179688 105.878906 161.339844 115.941406 Z M 92.449219 208.917969 C 109.257812 209.8125 124.769531 226.773438 126.078125 246.109375 C 127.859375 264.472656 115.683594 276.359375 100.015625 273.597656 C 85.855469 270.277344 72.914062 255 69.96875 238.609375 C 67.773438 221.378906 77.3125 207.714844 92.449219 208.917969 Z M 79.722656 77.210938 C 89.070312 74.441406 95.460938 81.617188 93.355469 93.761719 C 91.59375 106.496094 81.554688 118.429688 71.582031 120.015625 C 62.722656 121.644531 57.921875 113.390625 60.296875 101.824219 C 63.011719 90.964844 71.425781 80.144531 79.722656 77.210938 Z M 317.664062 54.671875 C 326.257812 57.078125 334.890625 65.890625 337.195312 74.582031 C 339.441406 84.035156 334.027344 90.464844 324.800781 88.746094 C 314.992188 87.222656 305.402344 77.484375 303.839844 67.445312 C 302.148438 58.03125 308.429688 52.433594 317.664062 54.671875 Z M 317.664062 54.671875 " clip-rule="nonzero"/></clipPath><linearGradient x1="435.883922" gradientTransform="matrix(0.744074, 0, 0, -0.744288, 57.92996, 1009.043352)" y1="1331.158466" x2="-4.70002" gradientUnits="userSpaceOnUse" y2="898.594297" id="5ceeacb19b"><stop stop-opacity="1" stop-color="rgb(5.099487%, 93.699646%, 96.499634%)" offset="0"/><stop stop-opacity="1" stop-color="rgb(5.099487%, 93.699646%, 96.499634%)" offset="0.125"/><stop stop-opacity="1" stop-color="rgb(5.099487%, 93.699646%, 96.499634%)" offset="0.1875"/><stop stop-opacity="1" stop-color="rgb(5.099487%, 93.699646%, 96.499634%)" offset="0.21875"/><stop stop-opacity="1" stop-color="rgb(5.099487%, 93.699646%, 96.499634%)" offset="0.226562"/><stop stop-opacity="1" stop-color="rgb(5.482483%, 93.31665%, 96.504211%)" offset="0.230469"/><stop stop-opacity="1" stop-color="rgb(5.867004%, 92.935181%, 96.508789%)" offset="0.234375"/><stop stop-opacity="1" stop-color="rgb(6.512451%, 92.29126%, 96.516418%)" offset="0.238281"/><stop stop-opacity="1" stop-color="rgb(7.159424%, 91.647339%, 96.524048%)" offset="0.242188"/><stop stop-opacity="1" stop-color="rgb(7.804871%, 91.003418%, 96.531677%)" offset="0.246094"/><stop stop-opacity="1" stop-color="rgb(8.451843%, 90.359497%, 96.539307%)" offset="0.25"/><stop stop-opacity="1" stop-color="rgb(9.098816%, 89.715576%, 96.54541%)" offset="0.253906"/><stop stop-opacity="1" stop-color="rgb(9.745789%, 89.073181%, 96.55304%)" offset="0.257812"/><stop stop-opacity="1" stop-color="rgb(10.391235%, 88.42926%, 96.560669%)" offset="0.261719"/><stop stop-opacity="1" stop-color="rgb(11.038208%, 87.785339%, 96.568298%)" offset="0.265625"/><stop stop-opacity="1" stop-color="rgb(11.685181%, 87.141418%, 96.575928%)" offset="0.269531"/><stop stop-opacity="1" stop-color="rgb(12.332153%, 86.497498%, 96.583557%)" offset="0.273438"/><stop stop-opacity="1" stop-color="rgb(12.9776%, 85.853577%, 96.591187%)" offset="0.277344"/><stop stop-opacity="1" stop-color="rgb(13.624573%, 85.209656%, 96.598816%)" offset="0.28125"/><stop stop-opacity="1" stop-color="rgb(14.271545%, 84.565735%, 96.606445%)" offset="0.285156"/><stop stop-opacity="1" stop-color="rgb(14.918518%, 83.921814%, 96.614075%)" offset="0.289062"/><stop stop-opacity="1" stop-color="rgb(15.563965%, 83.277893%, 96.621704%)" offset="0.292969"/><stop stop-opacity="1" stop-color="rgb(16.210938%, 82.633972%, 96.629333%)" offset="0.296875"/><stop stop-opacity="1" stop-color="rgb(16.85791%, 81.990051%, 96.636963%)" offset="0.300781"/><stop stop-opacity="1" stop-color="rgb(17.504883%, 81.347656%, 96.644592%)" offset="0.304688"/><stop stop-opacity="1" stop-color="rgb(18.15033%, 80.703735%, 96.652222%)" offset="0.308594"/><stop stop-opacity="1" stop-color="rgb(18.797302%, 80.059814%, 96.659851%)" offset="0.3125"/><stop stop-opacity="1" stop-color="rgb(19.444275%, 79.415894%, 96.66748%)" offset="0.316406"/><stop stop-opacity="1" stop-color="rgb(20.091248%, 78.771973%, 96.67511%)" offset="0.320312"/><stop stop-opacity="1" stop-color="rgb(20.736694%, 78.128052%, 96.682739%)" offset="0.324219"/><stop stop-opacity="1" stop-color="rgb(21.383667%, 77.484131%, 96.690369%)" offset="0.328125"/><stop stop-opacity="1" stop-color="rgb(22.029114%, 76.84021%, 96.697998%)" offset="0.332031"/><stop stop-opacity="1" stop-color="rgb(22.676086%, 76.196289%, 96.705627%)" offset="0.335938"/><stop stop-opacity="1" stop-color="rgb(23.323059%, 75.552368%, 96.713257%)" offset="0.339844"/><stop stop-opacity="1" stop-color="rgb(23.970032%, 74.908447%, 96.720886%)" offset="0.34375"/><stop stop-opacity="1" stop-color="rgb(24.615479%, 74.264526%, 96.728516%)" offset="0.347656"/><stop stop-opacity="1" stop-color="rgb(25.262451%, 73.622131%, 96.736145%)" offset="0.351562"/><stop stop-opacity="1" stop-color="rgb(25.909424%, 72.97821%, 96.743774%)" offset="0.355469"/><stop stop-opacity="1" stop-color="rgb(26.556396%, 72.33429%, 96.751404%)" offset="0.359375"/><stop stop-opacity="1" stop-color="rgb(27.201843%, 71.690369%, 96.759033%)" offset="0.363281"/><stop stop-opacity="1" stop-color="rgb(27.848816%, 71.046448%, 96.766663%)" offset="0.367188"/><stop stop-opacity="1" stop-color="rgb(28.495789%, 70.402527%, 96.774292%)" offset="0.371094"/><stop stop-opacity="1" stop-color="rgb(29.142761%, 69.758606%, 96.781921%)" offset="0.375"/><stop stop-opacity="1" stop-color="rgb(29.788208%, 69.114685%, 96.789551%)" offset="0.378906"/><stop stop-opacity="1" stop-color="rgb(30.435181%, 68.470764%, 96.79718%)" offset="0.382813"/><stop stop-opacity="1" stop-color="rgb(31.082153%, 67.826843%, 96.80481%)" offset="0.386719"/><stop stop-opacity="1" stop-color="rgb(31.729126%, 67.184448%, 96.812439%)" offset="0.390625"/><stop stop-opacity="1" stop-color="rgb(32.374573%, 66.540527%, 96.820068%)" offset="0.394531"/><stop stop-opacity="1" stop-color="rgb(33.021545%, 65.896606%, 96.827698%)" offset="0.398438"/><stop stop-opacity="1" stop-color="rgb(33.666992%, 65.252686%, 96.835327%)" offset="0.402344"/><stop stop-opacity="1" stop-color="rgb(34.313965%, 64.608765%, 96.842957%)" offset="0.40625"/><stop stop-opacity="1" stop-color="rgb(34.960938%, 63.964844%, 96.84906%)" offset="0.410156"/><stop stop-opacity="1" stop-color="rgb(35.60791%, 63.320923%, 96.856689%)" offset="0.414063"/><stop stop-opacity="1" stop-color="rgb(36.253357%, 62.677002%, 96.864319%)" offset="0.417969"/><stop stop-opacity="1" stop-color="rgb(36.90033%, 62.033081%, 96.871948%)" offset="0.421875"/><stop stop-opacity="1" stop-color="rgb(37.547302%, 61.38916%, 96.879578%)" offset="0.425781"/><stop stop-opacity="1" stop-color="rgb(38.194275%, 60.745239%, 96.887207%)" offset="0.429688"/><stop stop-opacity="1" stop-color="rgb(38.839722%, 60.101318%, 96.894836%)" offset="0.433594"/><stop stop-opacity="1" stop-color="rgb(39.486694%, 59.458923%, 96.902466%)" offset="0.4375"/><stop stop-opacity="1" stop-color="rgb(40.133667%, 58.815002%, 96.910095%)" offset="0.441406"/><stop stop-opacity="1" stop-color="rgb(40.78064%, 58.171082%, 96.917725%)" offset="0.445312"/><stop stop-opacity="1" stop-color="rgb(41.426086%, 57.527161%, 96.925354%)" offset="0.449219"/><stop stop-opacity="1" stop-color="rgb(42.073059%, 56.88324%, 96.932983%)" offset="0.453125"/><stop stop-opacity="1" stop-color="rgb(42.720032%, 56.239319%, 96.940613%)" offset="0.457031"/><stop stop-opacity="1" stop-color="rgb(43.367004%, 55.595398%, 96.948242%)" offset="0.460938"/><stop stop-opacity="1" stop-color="rgb(44.012451%, 54.951477%, 96.955872%)" offset="0.464844"/><stop stop-opacity="1" stop-color="rgb(44.659424%, 54.307556%, 96.963501%)" offset="0.46875"/><stop stop-opacity="1" stop-color="rgb(45.306396%, 53.663635%, 96.97113%)" offset="0.472656"/><stop stop-opacity="1" stop-color="rgb(45.953369%, 53.019714%, 96.97876%)" offset="0.476562"/><stop stop-opacity="1" stop-color="rgb(46.598816%, 52.375793%, 96.986389%)" offset="0.480469"/><stop stop-opacity="1" stop-color="rgb(47.245789%, 51.733398%, 96.994019%)" offset="0.484375"/><stop stop-opacity="1" stop-color="rgb(47.891235%, 51.089478%, 97.001648%)" offset="0.488281"/><stop stop-opacity="1" stop-color="rgb(48.538208%, 50.445557%, 97.009277%)" offset="0.492188"/><stop stop-opacity="1" stop-color="rgb(49.185181%, 49.801636%, 97.016907%)" offset="0.496094"/><stop stop-opacity="1" stop-color="rgb(49.832153%, 49.157715%, 97.024536%)" offset="0.5"/><stop stop-opacity="1" stop-color="rgb(50.4776%, 48.513794%, 97.032166%)" offset="0.503906"/><stop stop-opacity="1" stop-color="rgb(51.124573%, 47.869873%, 97.039795%)" offset="0.507812"/><stop stop-opacity="1" stop-color="rgb(51.771545%, 47.225952%, 97.047424%)" offset="0.511719"/><stop stop-opacity="1" stop-color="rgb(52.418518%, 46.582031%, 97.055054%)" offset="0.515625"/><stop stop-opacity="1" stop-color="rgb(53.063965%, 45.93811%, 97.062683%)" offset="0.519531"/><stop stop-opacity="1" stop-color="rgb(53.710938%, 45.294189%, 97.070312%)" offset="0.523438"/><stop stop-opacity="1" stop-color="rgb(54.35791%, 44.650269%, 97.077942%)" offset="0.527344"/><stop stop-opacity="1" stop-color="rgb(55.004883%, 44.007874%, 97.085571%)" offset="0.53125"/><stop stop-opacity="1" stop-color="rgb(55.65033%, 43.363953%, 97.093201%)" offset="0.535156"/><stop stop-opacity="1" stop-color="rgb(56.297302%, 42.720032%, 97.10083%)" offset="0.539062"/><stop stop-opacity="1" stop-color="rgb(56.944275%, 42.076111%, 97.108459%)" offset="0.542969"/><stop stop-opacity="1" stop-color="rgb(57.591248%, 41.43219%, 97.116089%)" offset="0.546875"/><stop stop-opacity="1" stop-color="rgb(58.236694%, 40.788269%, 97.123718%)" offset="0.550781"/><stop stop-opacity="1" stop-color="rgb(58.883667%, 40.144348%, 97.131348%)" offset="0.554688"/><stop stop-opacity="1" stop-color="rgb(59.529114%, 39.500427%, 97.137451%)" offset="0.558594"/><stop stop-opacity="1" stop-color="rgb(60.176086%, 38.856506%, 97.145081%)" offset="0.5625"/><stop stop-opacity="1" stop-color="rgb(60.823059%, 38.212585%, 97.15271%)" offset="0.566406"/><stop stop-opacity="1" stop-color="rgb(61.470032%, 37.568665%, 97.160339%)" offset="0.570312"/><stop stop-opacity="1" stop-color="rgb(62.115479%, 36.924744%, 97.167969%)" offset="0.574219"/><stop stop-opacity="1" stop-color="rgb(62.762451%, 36.282349%, 97.175598%)" offset="0.578125"/><stop stop-opacity="1" stop-color="rgb(63.409424%, 35.638428%, 97.183228%)" offset="0.582031"/><stop stop-opacity="1" stop-color="rgb(64.056396%, 34.994507%, 97.190857%)" offset="0.585938"/><stop stop-opacity="1" stop-color="rgb(64.701843%, 34.350586%, 97.198486%)" offset="0.589844"/><stop stop-opacity="1" stop-color="rgb(65.348816%, 33.706665%, 97.206116%)" offset="0.59375"/><stop stop-opacity="1" stop-color="rgb(65.995789%, 33.062744%, 97.213745%)" offset="0.597656"/><stop stop-opacity="1" stop-color="rgb(66.642761%, 32.418823%, 97.221375%)" offset="0.601562"/><stop stop-opacity="1" stop-color="rgb(67.288208%, 31.774902%, 97.229004%)" offset="0.605469"/><stop stop-opacity="1" stop-color="rgb(67.935181%, 31.130981%, 97.236633%)" offset="0.609375"/><stop stop-opacity="1" stop-color="rgb(68.582153%, 30.487061%, 97.244263%)" offset="0.613281"/><stop stop-opacity="1" stop-color="rgb(69.229126%, 29.84314%, 97.251892%)" offset="0.617188"/><stop stop-opacity="1" stop-color="rgb(69.874573%, 29.199219%, 97.259521%)" offset="0.621094"/><stop stop-opacity="1" stop-color="rgb(70.521545%, 28.556824%, 97.267151%)" offset="0.625"/><stop stop-opacity="1" stop-color="rgb(71.168518%, 27.912903%, 97.27478%)" offset="0.628906"/><stop stop-opacity="1" stop-color="rgb(71.815491%, 27.268982%, 97.28241%)" offset="0.632812"/><stop stop-opacity="1" stop-color="rgb(72.460938%, 26.625061%, 97.290039%)" offset="0.636719"/><stop stop-opacity="1" stop-color="rgb(73.10791%, 25.98114%, 97.297668%)" offset="0.640625"/><stop stop-opacity="1" stop-color="rgb(73.753357%, 25.337219%, 97.305298%)" offset="0.644531"/><stop stop-opacity="1" stop-color="rgb(74.40033%, 24.693298%, 97.312927%)" offset="0.648438"/><stop stop-opacity="1" stop-color="rgb(75.047302%, 24.049377%, 97.320557%)" offset="0.652344"/><stop stop-opacity="1" stop-color="rgb(75.694275%, 23.405457%, 97.328186%)" offset="0.65625"/><stop stop-opacity="1" stop-color="rgb(76.339722%, 22.761536%, 97.335815%)" offset="0.660156"/><stop stop-opacity="1" stop-color="rgb(76.986694%, 22.117615%, 97.343445%)" offset="0.664062"/><stop stop-opacity="1" stop-color="rgb(77.633667%, 21.473694%, 97.351074%)" offset="0.667969"/><stop stop-opacity="1" stop-color="rgb(78.28064%, 20.831299%, 97.358704%)" offset="0.671875"/><stop stop-opacity="1" stop-color="rgb(78.926086%, 20.187378%, 97.366333%)" offset="0.675781"/><stop stop-opacity="1" stop-color="rgb(79.573059%, 19.543457%, 97.373962%)" offset="0.679687"/><stop stop-opacity="1" stop-color="rgb(80.220032%, 18.899536%, 97.381592%)" offset="0.683594"/><stop stop-opacity="1" stop-color="rgb(80.867004%, 18.255615%, 97.389221%)" offset="0.6875"/><stop stop-opacity="1" stop-color="rgb(81.512451%, 17.611694%, 97.396851%)" offset="0.691406"/><stop stop-opacity="1" stop-color="rgb(82.159424%, 16.967773%, 97.40448%)" offset="0.695313"/><stop stop-opacity="1" stop-color="rgb(82.806396%, 16.323853%, 97.412109%)" offset="0.699219"/><stop stop-opacity="1" stop-color="rgb(83.453369%, 15.679932%, 97.419739%)" offset="0.703125"/><stop stop-opacity="1" stop-color="rgb(84.098816%, 15.036011%, 97.427368%)" offset="0.707031"/><stop stop-opacity="1" stop-color="rgb(84.745789%, 14.39209%, 97.434998%)" offset="0.710938"/><stop stop-opacity="1" stop-color="rgb(85.391235%, 13.748169%, 97.441101%)" offset="0.714844"/><stop stop-opacity="1" stop-color="rgb(86.038208%, 13.105774%, 97.44873%)" offset="0.71875"/><stop stop-opacity="1" stop-color="rgb(86.685181%, 12.461853%, 97.45636%)" offset="0.722656"/><stop stop-opacity="1" stop-color="rgb(87.332153%, 11.817932%, 97.463989%)" offset="0.726562"/><stop stop-opacity="1" stop-color="rgb(87.9776%, 11.174011%, 97.471619%)" offset="0.730469"/><stop stop-opacity="1" stop-color="rgb(88.624573%, 10.53009%, 97.479248%)" offset="0.734375"/><stop stop-opacity="1" stop-color="rgb(89.271545%, 9.886169%, 97.486877%)" offset="0.738281"/><stop stop-opacity="1" stop-color="rgb(89.918518%, 9.242249%, 97.494507%)" offset="0.742188"/><stop stop-opacity="1" stop-color="rgb(90.563965%, 8.598328%, 97.502136%)" offset="0.746094"/><stop stop-opacity="1" stop-color="rgb(91.210938%, 7.954407%, 97.509766%)" offset="0.75"/><stop stop-opacity="1" stop-color="rgb(91.85791%, 7.310486%, 97.517395%)" offset="0.753906"/><stop stop-opacity="1" stop-color="rgb(92.504883%, 6.666565%, 97.525024%)" offset="0.757812"/><stop stop-opacity="1" stop-color="rgb(93.15033%, 6.022644%, 97.532654%)" offset="0.761719"/><stop stop-opacity="1" stop-color="rgb(93.797302%, 5.380249%, 97.540283%)" offset="0.765625"/><stop stop-opacity="1" stop-color="rgb(94.444275%, 4.736328%, 97.547913%)" offset="0.769531"/><stop stop-opacity="1" stop-color="rgb(95.091248%, 4.092407%, 97.555542%)" offset="0.773438"/><stop stop-opacity="1" stop-color="rgb(95.736694%, 3.448486%, 97.563171%)" offset="0.777344"/><stop stop-opacity="1" stop-color="rgb(96.383667%, 2.804565%, 97.570801%)" offset="0.78125"/><stop stop-opacity="1" stop-color="rgb(97.029114%, 2.160645%, 97.57843%)" offset="0.785156"/><stop stop-opacity="1" stop-color="rgb(97.676086%, 1.516724%, 97.58606%)" offset="0.789063"/><stop stop-opacity="1" stop-color="rgb(98.23761%, 0.958252%, 97.592163%)" offset="0.792969"/><stop stop-opacity="1" stop-color="rgb(98.799133%, 0.39978%, 97.599792%)" offset="0.796875"/><stop stop-opacity="1" stop-color="rgb(98.799133%, 0.39978%, 97.599792%)" offset="0.8125"/><stop stop-opacity="1" stop-color="rgb(98.799133%, 0.39978%, 97.599792%)" offset="0.875"/><stop stop-opacity="1" stop-color="rgb(98.799133%, 0.39978%, 97.599792%)" offset="1"/></linearGradient></defs><g clip-path="url(#f80c799e65)"><path fill="#0a2140" d="M 378.769531 191.996094 C 378.769531 195.054688 378.695312 198.109375 378.546875 201.160156 C 378.394531 204.214844 378.171875 207.261719 377.871094 210.304688 C 377.570312 213.34375 377.195312 216.378906 376.75 219.402344 C 376.300781 222.425781 375.777344 225.4375 375.179688 228.433594 C 374.585938 231.433594 373.914062 234.414062 373.171875 237.378906 C 372.429688 240.34375 371.613281 243.289062 370.726562 246.214844 C 369.839844 249.140625 368.882812 252.039062 367.851562 254.917969 C 366.820312 257.796875 365.722656 260.648438 364.550781 263.472656 C 363.382812 266.296875 362.144531 269.089844 360.835938 271.851562 C 359.53125 274.617188 358.15625 277.34375 356.714844 280.039062 C 355.273438 282.738281 353.769531 285.394531 352.199219 288.015625 C 350.625 290.640625 348.992188 293.222656 347.292969 295.761719 C 345.59375 298.304688 343.835938 300.800781 342.015625 303.257812 C 340.195312 305.710938 338.3125 308.121094 336.375 310.484375 C 334.433594 312.847656 332.4375 315.160156 330.386719 317.425781 C 328.332031 319.691406 326.226562 321.902344 324.066406 324.066406 C 321.902344 326.226562 319.691406 328.332031 317.425781 330.386719 C 315.160156 332.4375 312.847656 334.433594 310.484375 336.375 C 308.121094 338.3125 305.710938 340.195312 303.257812 342.015625 C 300.800781 343.835938 298.304688 345.59375 295.761719 347.292969 C 293.222656 348.992188 290.640625 350.625 288.015625 352.199219 C 285.394531 353.769531 282.738281 355.273438 280.039062 356.714844 C 277.34375 358.15625 274.617188 359.53125 271.851562 360.835938 C 269.089844 362.144531 266.296875 363.382812 263.472656 364.550781 C 260.648438 365.722656 257.796875 366.820312 254.917969 367.851562 C 252.039062 368.882812 249.140625 369.839844 246.214844 370.726562 C 243.289062 371.613281 240.34375 372.429688 237.378906 373.171875 C 234.414062 373.914062 231.433594 374.585938 228.433594 375.179688 C 225.4375 375.777344 222.425781 376.300781 219.402344 376.75 C 216.378906 377.195312 213.34375 377.570312 210.304688 377.871094 C 207.261719 378.171875 204.214844 378.394531 201.160156 378.546875 C 198.109375 378.695312 195.054688 378.769531 191.996094 378.769531 C 188.941406 378.769531 185.886719 378.695312 182.832031 378.546875 C 179.777344 378.394531 176.730469 378.171875 173.691406 377.871094 C 170.648438 377.570312 167.613281 377.195312 164.589844 376.75 C 161.566406 376.300781 158.558594 375.777344 155.558594 375.179688 C 152.5625 374.585938 149.578125 373.914062 146.613281 373.171875 C 143.648438 372.429688 140.703125 371.613281 137.777344 370.726562 C 134.855469 369.839844 131.953125 368.882812 129.074219 367.851562 C 126.195312 366.820312 123.34375 365.722656 120.519531 364.550781 C 117.699219 363.382812 114.902344 362.144531 112.140625 360.835938 C 109.378906 359.53125 106.648438 358.15625 103.953125 356.714844 C 101.257812 355.273438 98.597656 353.769531 95.976562 352.199219 C 93.355469 350.625 90.773438 348.992188 88.230469 347.292969 C 85.6875 345.59375 83.191406 343.835938 80.734375 342.015625 C 78.28125 340.195312 75.871094 338.3125 73.507812 336.375 C 71.144531 334.433594 68.832031 332.4375 66.566406 330.386719 C 64.300781 328.332031 62.089844 326.226562 59.929688 324.066406 C 57.765625 321.902344 55.660156 319.691406 53.605469 317.425781 C 51.554688 315.160156 49.558594 312.847656 47.617188 310.484375 C 45.679688 308.121094 43.800781 305.710938 41.980469 303.257812 C 40.15625 300.800781 38.398438 298.304688 36.699219 295.761719 C 35 293.222656 33.367188 290.640625 31.796875 288.015625 C 30.222656 285.394531 28.71875 282.738281 27.277344 280.039062 C 25.835938 277.34375 24.460938 274.617188 23.15625 271.851562 C 21.847656 269.089844 20.609375 266.296875 19.441406 263.472656 C 18.269531 260.648438 17.171875 257.796875 16.140625 254.917969 C 15.113281 252.039062 14.152344 249.140625 13.265625 246.214844 C 12.378906 243.289062 11.5625 240.34375 10.820312 237.378906 C 10.078125 234.414062 9.410156 231.433594 8.8125 228.433594 C 8.214844 225.4375 7.691406 222.425781 7.246094 219.402344 C 6.796875 216.378906 6.421875 213.34375 6.121094 210.304688 C 5.824219 207.261719 5.597656 204.214844 5.449219 201.160156 C 5.296875 198.109375 5.222656 195.054688 5.222656 191.996094 C 5.222656 188.941406 5.296875 185.886719 5.449219 182.832031 C 5.597656 179.777344 5.824219 176.730469 6.121094 173.691406 C 6.421875 170.648438 6.796875 167.613281 7.246094 164.589844 C 7.691406 161.566406 8.214844 158.558594 8.8125 155.558594 C 9.410156 152.5625 10.078125 149.578125 10.820312 146.613281 C 11.5625 143.648438 12.378906 140.703125 13.265625 137.777344 C 14.152344 134.855469 15.113281 131.953125 16.140625 129.074219 C 17.171875 126.195312 18.269531 123.34375 19.441406 120.519531 C 20.609375 117.699219 21.847656 114.902344 23.15625 112.140625 C 24.460938 109.378906 25.835938 106.648438 27.277344 103.953125 C 28.71875 101.257812 30.222656 98.597656 31.796875 95.976562 C 33.367188 93.355469 35 90.773438 36.699219 88.230469 C 38.398438 85.6875 40.15625 83.191406 41.980469 80.734375 C 43.800781 78.28125 45.679688 75.871094 47.617188 73.507812 C 49.558594 71.144531 51.554688 68.832031 53.605469 66.566406 C 55.660156 64.300781 57.765625 62.089844 59.929688 59.929688 C 62.089844 57.765625 64.300781 55.660156 66.566406 53.605469 C 68.832031 51.554688 71.144531 49.558594 73.507812 47.617188 C 75.871094 45.679688 78.28125 43.800781 80.734375 41.980469 C 83.191406 40.15625 85.6875 38.398438 88.230469 36.699219 C 90.773438 35 93.355469 33.367188 95.976562 31.796875 C 98.597656 30.222656 101.257812 28.71875 103.953125 27.277344 C 106.648438 25.835938 109.378906 24.460938 112.140625 23.15625 C 114.902344 21.847656 117.699219 20.609375 120.519531 19.441406 C 123.34375 18.269531 126.195312 17.171875 129.074219 16.140625 C 131.953125 15.113281 134.855469 14.152344 137.777344 13.265625 C 140.703125 12.378906 143.648438 11.5625 146.613281 10.820312 C 149.578125 10.078125 152.5625 9.410156 155.558594 8.8125 C 158.558594 8.214844 161.566406 7.691406 164.589844 7.246094 C 167.613281 6.796875 170.648438 6.421875 173.691406 6.121094 C 176.730469 5.824219 179.777344 5.597656 182.832031 5.449219 C 185.886719 5.296875 188.941406 5.222656 191.996094 5.222656 C 195.054688 5.222656 198.109375 5.296875 201.160156 5.449219 C 204.214844 5.597656 207.261719 5.824219 210.304688 6.121094 C 213.34375 6.421875 216.378906 6.796875 219.402344 7.246094 C 222.425781 7.691406 225.4375 8.214844 228.433594 8.8125 C 231.433594 9.410156 234.414062 10.078125 237.378906 10.820312 C 240.34375 11.5625 243.289062 12.378906 246.214844 13.265625 C 249.140625 14.152344 252.039062 15.113281 254.917969 16.140625 C 257.796875 17.171875 260.648438 18.269531 263.472656 19.441406 C 266.296875 20.609375 269.089844 21.847656 271.851562 23.15625 C 274.617188 24.460938 277.34375 25.835938 280.039062 27.277344 C 282.738281 28.71875 285.394531 30.222656 288.015625 31.796875 C 290.640625 33.367188 293.222656 35 295.761719 36.699219 C 298.304688 38.398438 300.800781 40.15625 303.257812 41.980469 C 305.710938 43.800781 308.121094 45.679688 310.484375 47.617188 C 312.847656 49.558594 315.160156 51.554688 317.425781 53.605469 C 319.691406 55.660156 321.902344 57.765625 324.066406 59.929688 C 326.226562 62.089844 328.332031 64.300781 330.386719 66.566406 C 332.4375 68.832031 334.433594 71.144531 336.375 73.507812 C 338.3125 75.871094 340.195312 78.28125 342.015625 80.734375 C 343.835938 83.191406 345.59375 85.6875 347.292969 88.230469 C 348.992188 90.773438 350.625 93.355469 352.199219 95.976562 C 353.769531 98.597656 355.273438 101.257812 356.714844 103.953125 C 358.15625 106.648438 359.53125 109.378906 360.835938 112.140625 C 362.144531 114.902344 363.382812 117.699219 364.550781 120.519531 C 365.722656 123.34375 366.820312 126.195312 367.851562 129.074219 C 368.882812 131.953125 369.839844 134.855469 370.726562 137.777344 C 371.613281 140.703125 372.429688 143.648438 373.171875 146.613281 C 373.914062 149.578125 374.585938 152.5625 375.179688 155.558594 C 375.777344 158.558594 376.300781 161.566406 376.75 164.589844 C 377.195312 167.613281 377.570312 170.648438 377.871094 173.691406 C 378.171875 176.730469 378.394531 179.777344 378.546875 182.832031 C 378.695312 185.886719 378.769531 188.941406 378.769531 191.996094 Z M 378.769531 191.996094 " fill-opacity="1" fill-rule="nonzero"/></g><g clip-path="url(#ac3962f778)"><g clip-path="url(#22c9e773c3)"><path fill="url(#5ceeacb19b)" d="M 59.417969 345.308594 L 59.417969 13.058594 L 377.136719 13.058594 L 377.136719 345.308594 Z M 59.417969 345.308594 " fill-rule="nonzero"/></g></g></svg>